<svg width="35.000000" height="37.000000" viewBox="0 0 35 37" fill="none" xmlns="http://www.w3.org/2000/svg" xmlns:xlink="http://www.w3.org/1999/xlink">
	<desc>
			Created with Pixso.
	</desc>
	<defs/>
	<path id="Vector" d="M14 27.52C14 34.09 14.16 35.85 20.84 34.64L24.7 33.94C28.66 33.22 30.64 32.86 31.82 31.34C33 29.83 33 27.64 33 23.26L33 12.73C33 8.35 33 6.16 31.82 4.65C30.64 3.13 28.66 2.77 24.7 2.05L20.84 1.35C14.16 0.14 14 1.9 14 8.47L14 27.52Z" stroke="#40525E" stroke-opacity="1.000000" stroke-width="3.000000"/>
	<path id="Vector" d="M20 15L20 21" stroke="#40525E" stroke-opacity="1.000000" stroke-width="3.000000" stroke-linecap="round"/>
	<path id="Vector" d="M9 6C4.97 6 3.76 6.07 2.43 7.17C1 8.34 1 10.22 1 14L1 22C1 25.77 1 27.65 2.43 28.82C3.76 29.92 4.97 29.99 9 30" stroke="#40525E" stroke-opacity="1.000000" stroke-width="3.000000"/>
</svg>
